version 1
nodes
0 "root" -1
end
skeleton
time 0
0  0.000000 0.000000 0.000000  0.000000 -0.000000 0.000000
end
triangles
no_material
0  -1.192216 -6.795460 69.525612  -0.181661 -0.955653 0.231791  0.711161 1.836077 1 0 1.000000
0  -7.331109 -3.027730 69.106682  -0.819308 -0.553765 0.148586  0.233756 1.313374 1 0 1.000000
0  -7.859138 -2.678654 63.605202  -0.928461 -0.346388 0.134075  0.576021 1.629724 1 0 1.000000
no_material
0  -6.768297 -6.432597 103.061783  -0.527805 -0.657864 0.537250  0.172927 1.885453 1 0 1.000000
0  -7.304412 -8.189437 92.784966  -0.597097 -0.801911 0.020357  0.167228 1.774162 1 0 1.000000
0  -5.882542 -8.768015 95.878479  -0.242383 -0.966238 0.087377  0.182595 1.800210 1 0 1.000000
no_material
0  4.342149 8.196568 36.371403  0.511881 0.843542 0.162527  0.395062 1.301890 1 0 1.000000
0  0.337913 9.721295 33.886814  0.020529 0.998460 0.051528  0.435502 1.290640 1 0 1.000000
0  0.839276 6.036245 51.023170  0.172693 0.978216 0.115202  0.442241 1.401273 1 0 1.000000
no_material
0  2.312382 5.992638 65.756317  0.132894 0.990742 -0.027733  0.439583 1.497931 1 0 1.000000
0  1.329071 5.068150 75.800644  0.335789 0.927131 -0.166358  0.437370 1.574272 1 0 1.000000
0  5.894395 4.786850 67.262703  0.671957 0.739746 0.035359  0.374779 1.519816 1 0 1.000000
no_material
0  -8.550240 0.273002 21.245195  -0.999888 0.005601 -0.013880  0.379791 1.134822 1 0 1.000000
0  -8.201132 1.556135 34.620773  -0.993055 -0.117561 -0.004585  0.429050 1.036939 1 0 1.000000
0  -7.588580 2.770294 23.716852  -0.733766 0.654774 -0.181271  0.414567 1.132270 1 0 1.000000
no_material
0  7.667713 0.986074 38.119080  0.991503 -0.128760 -0.018541  0.971002 1.518692 1 0 1.000000
0  6.581108 -2.498996 19.581091  0.454592 -0.890700 0.000319  0.872070 1.419490 1 0 1.000000
0  9.158210 3.034936 26.503607  0.999727 0.022196 -0.007339  0.886226 1.463979 1 0 1.000000
no_material
0  -2.249294 -0.142647 18.864159  0.997397 0.007253 -0.071734  0.261898 1.111764 1 0 1.000000
0  -4.638125 2.528944 19.393599  0.376388 0.915152 -0.144323  0.220983 1.098503 1 0 1.000000
0  -0.132297 -1.213195 25.864235  0.256660 -0.677051 -0.689730  0.276188 1.015903 1 0 1.000000
no_material
0  4.589947 -8.320367 92.142075  0.359928 -0.930704 0.065127  0.305917 1.764563 1 0 1.000000
0  4.632118 -8.723330 88.961868  0.450177 -0.880678 -0.147470  0.309686 1.724961 1 0 1.000000
0  8.783584 -4.695476 93.284042  0.897909 -0.439839 0.017318  0.355547 1.791144 1 0 1.000000
no_material
0  4.063572 -2.951221 75.690971  0.809833 -0.585990 0.028029  0.851645 1.901013 1 0 1.000000
0  5.699169 1.685997 74.269737  0.900805 0.308959 0.305113  0.914828 1.910662 1 0 1.000000
0  5.148075 -0.213610 77.566856  0.978005 -0.128568 -0.164247  0.890410 1.923837 1 0 1.000000
no_material
0  8.783584 -4.695476 93.284042  0.897909 -0.439839 0.017318  0.355547 1.791144 1 0 1.000000
0  4.632118 -8.723330 88.961868  0.450177 -0.880678 -0.147470  0.309686 1.724961 1 0 1.000000
0  4.531431 -4.170371 80.680946  0.681346 -0.655184 -0.326344  0.342003 1.674613 1 0 1.000000
no_material
0  -7.859138 -2.678654 63.605202  -0.928461 -0.346388 0.134075  0.576021 1.629724 1 0 1.000000
0  -6.613125 -4.326754 46.942505  -0.823893 -0.561026 -0.080313  0.624352 1.656769 1 0 1.000000
0  -2.772073 -8.453180 53.635780  -0.333522 -0.942601 0.016344  0.693064 1.714084 1 0 1.000000
no_material
0  1.329640 -7.250354 104.095337  0.212459 -0.794490 0.568899  0.260497 1.890853 1 0 1.000000
0  -5.882542 -8.768015 95.878479  -0.242383 -0.966238 0.087377  0.182595 1.800210 1 0 1.000000
0  -1.393112 -7.691959 97.231194  0.086203 -0.994651 0.056901  0.229340 1.810477 1 0 1.000000
no_material
0  -5.882542 -8.768015 95.878479  -0.242383 -0.966238 0.087377  0.182595 1.800210 1 0 1.000000
0  1.329640 -7.250354 104.095337  0.212459 -0.794490 0.568899  0.260497 1.890853 1 0 1.000000
0  -6.768297 -6.432597 103.061783  -0.527805 -0.657864 0.537250  0.172927 1.885453 1 0 1.000000
no_material
0  6.528218 -1.362235 104.205200  0.790561 -0.188594 0.582620  0.345256 1.917617 1 0 1.000000
0  4.798882 -8.334570 96.034264  0.412501 -0.895250 0.168434  0.304417 1.805116 1 0 1.000000
0  8.783584 -4.695476 93.284042  0.897909 -0.439839 0.017318  0.355547 1.791144 1 0 1.000000
no_material
0  -4.686701 9.194277 104.046288  -0.516700 0.510505 0.687318  0.689277 1.202082 1 0 1.000000
0  -5.572253 0.328239 107.072250  -0.492028 -0.044439 0.869444  0.700366 1.282583 1 0 1.000000
0  -0.043356 10.301215 104.903877  0.093281 0.624354 0.775552  0.641842 1.208283 1 0 1.000000
no_material
0  -3.062183 -5.380156 78.857697  -0.388235 -0.842883 -0.372588  0.690637 1.931594 1 0 1.000000
0  1.534352 -4.730998 74.903999  0.287449 -0.952535 0.100254  0.773793 1.888741 1 0 1.000000
0  4.531431 -4.170371 80.680946  0.681346 -0.655184 -0.326344  0.828316 1.948941 1 0 1.000000
no_material
0  6.535301 2.251960 10.173449  0.498440 0.856551 -0.133708  0.764638 1.444256 1 0 1.000000
0  8.667201 0.436260 17.223978  0.994668 -0.075664 -0.070078  0.833290 1.433511 1 0 1.000000
0  6.844439 -1.751047 -0.567939  0.797830 -0.292247 -0.527314  0.736834 1.396560 1 0 1.000000
no_material
0  6.367937 9.611304 94.225700  0.852890 0.518831 -0.058244  0.476299 1.855649 1 0 1.000000
0  5.917737 8.538724 102.072807  0.769994 0.428104 0.473113  0.436854 1.909222 1 0 1.000000
0  9.322822 -0.483992 94.428146  0.996168 0.039277 0.078151  0.402253 1.818904 1 0 1.000000
no_material
0  1.329640 -7.250354 104.095337  0.212459 -0.794490 0.568899  0.260497 1.890853 1 0 1.000000
0  -1.393112 -7.691959 97.231194  0.086203 -0.994651 0.056901  0.229340 1.810477 1 0 1.000000
0  4.798882 -8.334570 96.034264  0.412501 -0.895250 0.168434  0.304417 1.805116 1 0 1.000000
no_material
0  1.329640 -7.250354 104.095337  0.212459 -0.794490 0.568899  0.260497 1.890853 1 0 1.000000
0  4.798882 -8.334570 96.034264  0.412501 -0.895250 0.168434  0.304417 1.805116 1 0 1.000000
0  6.528218 -1.362235 104.205200  0.790561 -0.188594 0.582620  0.345256 1.917617 1 0 1.000000
no_material
0  -6.768297 -6.432597 103.061783  -0.527805 -0.657864 0.537250  0.172927 1.885453 1 0 1.000000
0  1.329640 -7.250354 104.095337  0.212459 -0.794490 0.568899  0.260497 1.890853 1 0 1.000000
0  -5.572253 0.328239 107.072250  -0.492028 -0.044439 0.869444  0.158327 1.956425 1 0 1.000000
no_material
0  -2.081160 -7.066873 39.855957  -0.228141 -0.937625 -0.262319  0.719170 1.609970 1 0 1.000000
0  -2.772073 -8.453180 53.635780  -0.333522 -0.942601 0.016344  0.693064 1.714084 1 0 1.000000
0  -6.613125 -4.326754 46.942505  -0.823893 -0.561026 -0.080313  0.624352 1.656769 1 0 1.000000
no_material
0  -7.640455 9.252055 99.776962  -0.800245 0.545177 0.249781  0.719877 1.167533 1 0 1.000000
0  -9.024105 7.475864 91.730515  -0.836473 0.530563 -0.137174  0.740701 1.097699 1 0 1.000000
0  -10.747785 -1.079572 99.538467  -0.963139 -0.101432 0.249147  0.774889 1.189338 1 0 1.000000
no_material
0  -6.804206 1.647597 -0.653671  -0.690702 0.494837 -0.527321  0.342917 1.267451 1 0 1.000000
0  -7.588580 2.770294 23.716852  -0.733766 0.654774 -0.181271  0.414567 1.132270 1 0 1.000000
0  -4.638125 2.528944 19.393599  0.376388 0.915152 -0.144323  0.416343 1.164381 1 0 1.000000
no_material
0  -2.075505 -4.568207 74.776451  -0.442112 -0.896705 0.021393  0.682056 1.883654 1 0 1.000000
0  1.534352 -4.730998 74.903999  0.287449 -0.952535 0.100254  0.773793 1.888741 1 0 1.000000
0  -3.062183 -5.380156 78.857697  -0.388235 -0.842883 -0.372588  0.690637 1.931594 1 0 1.000000
no_material
0  -5.222922 -1.202419 75.389908  -0.870373 -0.484790 0.086194  0.599545 1.894581 1 0 1.000000
0  -7.331109 -3.027730 69.106682  -0.819308 -0.553765 0.148586  0.553440 1.823987 1 0 1.000000
0  -1.192216 -6.795460 69.525612  -0.181661 -0.955653 0.231791  0.711161 1.836077 1 0 1.000000
no_material
0  -7.818534 1.700953 68.030373  -0.983099 0.126767 0.132089  0.533900 1.867300 1 0 1.000000
0  -7.331109 -3.027730 69.106682  -0.819308 -0.553765 0.148586  0.553440 1.823987 1 0 1.000000
0  -5.870556 0.395184 73.388718  -0.958646 0.183382 0.217644  0.563452 1.876050 1 0 1.000000
no_material
0  1.790055 0.968193 -1.025939  -0.708741 0.381494 -0.593422  0.969330 1.864161 1 0 1.000000
0  5.075503 -2.926529 -0.759647  0.114657 -0.794856 -0.595867  0.977346 1.816185 1 0 1.000000
0  2.521172 -2.183605 -0.659011  -0.606280 -0.594934 -0.527710  0.986657 1.843969 1 0 1.000000
no_material
0  0.671633 -8.059051 84.343796  0.127751 -0.917625 -0.376356  0.270592 1.669059 1 0 1.000000
0  4.531431 -4.170371 80.680946  0.681346 -0.655184 -0.326344  0.342003 1.674613 1 0 1.000000
0  4.632118 -8.723330 88.961868  0.450177 -0.880678 -0.147470  0.309686 1.724961 1 0 1.000000
no_material
0  7.625583 6.608512 27.451872  0.637922 0.755180 -0.150859  0.870443 1.485349 1 0 1.000000
0  6.699852 5.729787 35.959503  0.847210 0.503936 0.168177  0.924565 1.547378 1 0 1.000000
0  9.158210 3.034936 26.503607  0.999727 0.022196 -0.007339  0.886226 1.463979 1 0 1.000000
no_material
0  0.337913 9.721295 33.886814  0.020529 0.998460 0.051528  0.981636 1.179868 1 0 1.000000
0  4.342149 8.196568 36.371403  0.511881 0.843542 0.162527  0.958600 1.165400 1 0 1.000000
0  7.625583 6.608512 27.451872  0.637922 0.755180 -0.150859  0.926434 1.244325 1 0 1.000000
no_material
0  -7.090976 -2.398893 -1.063217  -0.534075 -0.572610 -0.621998  0.983839 1.974039 1 0 1.000000
0  -2.675256 0.930976 -0.858230  0.793182 0.174196 -0.583539  0.940953 1.926870 1 0 1.000000
0  -3.686035 -2.050801 -0.785415  0.518397 -0.628152 -0.580249  0.984666 1.944109 1 0 1.000000
no_material
0  -7.304412 -8.189437 92.784966  -0.597097 -0.801911 0.020357  0.167228 1.774162 1 0 1.000000
0  -8.080747 -6.563743 87.143265  -0.799547 -0.531634 -0.279445  0.131800 1.710142 1 0 1.000000
0  -5.685370 -8.910997 89.072281  -0.297521 -0.946370 -0.125956  0.185400 1.722237 1 0 1.000000
no_material
0  -5.572253 0.328239 107.072250  -0.492028 -0.044439 0.869444  0.700366 1.282583 1 0 1.000000
0  -7.640455 9.252055 99.776962  -0.800245 0.545177 0.249781  0.719877 1.167533 1 0 1.000000
0  -10.747785 -1.079572 99.538467  -0.963139 -0.101432 0.249147  0.774889 1.189338 1 0 1.000000
no_material
0  7.625583 6.608512 27.451872  0.637922 0.755180 -0.150859  0.926434 1.244325 1 0 1.000000
0  6.965631 3.419333 16.913353  0.504211 0.828391 -0.244009  0.873676 1.252496 1 0 1.000000
0  2.478390 2.149715 12.476557  -0.786435 0.616058 -0.044638  0.835731 1.279847 1 0 1.000000
no_material
0  -4.686701 9.194277 104.046288  -0.516700 0.510505 0.687318  0.689277 1.202082 1 0 1.000000
0  -7.640455 9.252055 99.776962  -0.800245 0.545177 0.249781  0.719877 1.167533 1 0 1.000000
0  -5.572253 0.328239 107.072250  -0.492028 -0.044439 0.869444  0.700366 1.282583 1 0 1.000000
no_material
0  -6.266788 3.874697 50.215317  -0.703568 0.707592 0.065612  0.534177 1.385118 1 0 1.000000
0  0.337913 9.721295 33.886814  0.020529 0.998460 0.051528  0.435502 1.290640 1 0 1.000000
0  -5.628890 8.102172 32.117901  -0.646734 0.762421 -0.021182  0.490700 1.271819 1 0 1.000000
no_material
0  -8.550240 0.273002 21.245195  -0.999888 0.005601 -0.013880  0.379791 1.134822 1 0 1.000000
0  -7.588580 2.770294 23.716852  -0.733766 0.654774 -0.181271  0.414567 1.132270 1 0 1.000000
0  -8.034076 0.400317 10.276506  -0.985329 0.161983 -0.053739  0.348433 1.225038 1 0 1.000000
no_material
0  -6.266788 3.874697 50.215317  -0.703568 0.707592 0.065612  0.534177 1.385118 1 0 1.000000
0  -7.921056 -0.420780 49.693230  -0.999713 0.023849 -0.002282  0.585143 1.380357 1 0 1.000000
0  -6.496302 3.943445 66.933739  -0.672451 0.739439 0.032239  0.546064 1.501273 1 0 1.000000
no_material
0  -10.747785 -1.079572 99.538467  -0.963139 -0.101432 0.249147  0.774889 1.189338 1 0 1.000000
0  -9.024105 7.475864 91.730515  -0.836473 0.530563 -0.137174  0.740701 1.097699 1 0 1.000000
0  -9.345569 2.898203 84.986115  -0.928240 0.204528 -0.310707  0.775788 1.032867 1 0 1.000000
no_material
0  4.589947 -8.320367 92.142075  0.359928 -0.930704 0.065127  0.305917 1.764563 1 0 1.000000
0  1.350390 -8.310664 94.031067  -0.047275 -0.994147 0.097139  0.267890 1.780215 1 0 1.000000
0  1.329201 -8.782957 89.910271  0.017856 -0.999730 0.014858  0.264149 1.725428 1 0 1.000000
no_material
0  8.220033 0.924281 85.379707  0.962148 0.058121 -0.266256  0.903976 1.980908 1 0 1.000000
0  4.531431 -4.170371 80.680946  0.681346 -0.655184 -0.326344  0.828316 1.948941 1 0 1.000000
0  5.148075 -0.213610 77.566856  0.978005 -0.128568 -0.164247  0.890410 1.923837 1 0 1.000000
no_material
0  4.500654 2.152783 76.677742  0.845629 0.530279 -0.060964  0.378574 1.585095 1 0 1.000000
0  1.329071 5.068150 75.800644  0.335789 0.927131 -0.166358  0.437370 1.574272 1 0 1.000000
0  4.691925 5.762985 81.727859  0.778207 0.517683 -0.355525  0.410790 1.625522 1 0 1.000000
no_material
0  2.914449 13.406938 98.439812  0.436106 0.875745 0.207080  0.609998 1.153682 1 0 1.000000
0  -0.043356 10.301215 104.903877  0.093281 0.624354 0.775552  0.641842 1.208283 1 0 1.000000
0  5.917737 8.538724 102.072807  0.769994 0.428104 0.473113  0.577560 1.202262 1 0 1.000000
no_material
0  -6.804206 1.647597 -0.653671  -0.690702 0.494837 -0.527321  0.342917 1.267451 1 0 1.000000
0  -4.638125 2.528944 19.393599  0.376388 0.915152 -0.144323  0.416343 1.164381 1 0 1.000000
0  -4.446906 2.771695 -1.049373  0.139625 0.777474 -0.613221  0.376278 1.277881 1 0 1.000000
no_material
0  -6.768297 -6.432597 103.061783  -0.527805 -0.657864 0.537250  0.172927 1.885453 1 0 1.000000
0  -10.747785 -1.079572 99.538467  -0.963139 -0.101432 0.249147  0.092260 1.869803 1 0 1.000000
0  -7.304412 -8.189437 92.784966  -0.597097 -0.801911 0.020357  0.167228 1.774162 1 0 1.000000
no_material
0  -9.345569 2.898203 84.986115  -0.928240 0.204528 -0.310707  0.060043 1.728724 1 0 1.000000
0  -8.080747 -6.563743 87.143265  -0.799547 -0.531634 -0.279445  0.131800 1.710142 1 0 1.000000
0  -10.747785 -1.079572 99.538467  -0.963139 -0.101432 0.249147  0.092260 1.869803 1 0 1.000000
no_material
0  -4.638125 2.528944 19.393599  0.376388 0.915152 -0.144323  0.220983 1.098503 1 0 1.000000
0  -2.249294 -0.142647 18.864159  0.997397 0.007253 -0.071734  0.261898 1.111764 1 0 1.000000
0  -4.446906 2.771695 -1.049373  0.139625 0.777474 -0.613221  0.188165 1.228010 1 0 1.000000
no_material
0  -5.685370 -8.910997 89.072281  -0.297521 -0.946370 -0.125956  0.688000 1.976000 1 0 1.000000
0  -8.080747 -6.563743 87.143265  -0.799547 -0.531634 -0.279445  0.648917 1.974114 1 0 1.000000
0  -3.062183 -5.380156 78.857697  -0.388235 -0.842883 -0.372588  0.690637 1.931594 1 0 1.000000
no_material
0  -3.062183 -5.380156 78.857697  -0.388235 -0.842883 -0.372588  0.690637 1.931594 1 0 1.000000
0  4.531431 -4.170371 80.680946  0.681346 -0.655184 -0.326344  0.828316 1.948941 1 0 1.000000
0  0.671633 -8.059051 84.343796  0.127751 -0.917625 -0.376356  0.748224 1.978098 1 0 1.000000
no_material
0  2.521172 -2.183605 -0.659011  -0.606280 -0.594934 -0.527710  0.753153 1.327198 1 0 1.000000
0  5.075503 -2.926529 -0.759647  0.114657 -0.794856 -0.595867  0.743303 1.364739 1 0 1.000000
0  2.892057 -1.650982 14.119768  -0.780435 -0.624592 0.028395  0.837057 1.347046 1 0 1.000000
no_material
0  6.699852 5.729787 35.959503  0.847210 0.503936 0.168177  0.924565 1.547378 1 0 1.000000
0  7.625583 6.608512 27.451872  0.637922 0.755180 -0.150859  0.870443 1.485349 1 0 1.000000
0  4.342149 8.196568 36.371403  0.511881 0.843542 0.162527  0.905248 1.570956 1 0 1.000000
no_material
0  4.691925 5.762985 81.727859  0.778207 0.517683 -0.355525  0.410790 1.625522 1 0 1.000000
0  8.220033 0.924281 85.379707  0.962148 0.058121 -0.266256  0.367260 1.644258 1 0 1.000000
0  4.500654 2.152783 76.677742  0.845629 0.530279 -0.060964  0.378574 1.585095 1 0 1.000000
no_material
0  4.063572 -2.951221 75.690971  0.809833 -0.585990 0.028029  0.851645 1.901013 1 0 1.000000
0  2.817384 -7.240716 62.647751  0.367474 -0.923352 0.111286  0.811431 1.793121 1 0 1.000000
0  6.961866 -3.579089 65.389938  0.811445 -0.572872 0.115649  0.924566 1.813885 1 0 1.000000
no_material
0  4.063572 -2.951221 75.690971  0.809833 -0.585990 0.028029  0.851645 1.901013 1 0 1.000000
0  4.531431 -4.170371 80.680946  0.681346 -0.655184 -0.326344  0.828316 1.948941 1 0 1.000000
0  1.534352 -4.730998 74.903999  0.287449 -0.952535 0.100254  0.773793 1.888741 1 0 1.000000
no_material
0  -1.393112 -7.691959 97.231194  0.086203 -0.994651 0.056901  0.229340 1.810477 1 0 1.000000
0  -3.510483 -8.385953 93.121689  0.032710 -0.996079 0.082196  0.208792 1.768930 1 0 1.000000
0  1.329201 -8.782957 89.910271  0.017856 -0.999730 0.014858  0.264149 1.725428 1 0 1.000000
no_material
0  -2.996158 6.234198 78.236565  -0.419316 0.815995 -0.397903  0.485781 1.600664 1 0 1.000000
0  3.402729 10.905264 86.995514  0.479836 0.793484 -0.374353  0.440848 1.643896 1 0 1.000000
0  1.329071 5.068150 75.800644  0.335789 0.927131 -0.166358  0.437370 1.574272 1 0 1.000000
no_material
0  -6.496302 3.943445 66.933739  -0.672451 0.739439 0.032239  0.546064 1.501273 1 0 1.000000
0  2.312382 5.992638 65.756317  0.132894 0.990742 -0.027733  0.439583 1.497931 1 0 1.000000
0  -3.902552 4.845908 61.246010  -0.270811 0.962549 0.012681  0.511766 1.470267 1 0 1.000000
no_material
0  3.590599 5.779117 26.104830  -0.092764 0.565283 -0.819664  0.419286 1.241162 1 0 1.000000
0  -2.549874 4.629700 24.544506  0.282691 0.351221 -0.892597  0.449000 1.231994 1 0 1.000000
0  -1.027653 8.818697 25.984846  -0.049313 0.793146 -0.607032  0.453981 1.251745 1 0 1.000000
no_material
0  -8.034076 0.400317 10.276506  -0.985329 0.161983 -0.053739  0.348433 1.225038 1 0 1.000000
0  -6.804206 1.647597 -0.653671  -0.690702 0.494837 -0.527321  0.342917 1.267451 1 0 1.000000
0  -7.090976 -2.398893 -1.063217  -0.534075 -0.572610 -0.621998  0.304265 1.256430 1 0 1.000000
no_material
0  -2.075505 -4.568207 74.776451  -0.442112 -0.896705 0.021393  0.682056 1.883654 1 0 1.000000
0  -1.192216 -6.795460 69.525612  -0.181661 -0.955653 0.231791  0.711161 1.836077 1 0 1.000000
0  1.534352 -4.730998 74.903999  0.287449 -0.952535 0.100254  0.773793 1.888741 1 0 1.000000
no_material
0  -3.062183 -5.380156 78.857697  -0.388235 -0.842883 -0.372588  0.690637 1.931594 1 0 1.000000
0  0.671633 -8.059051 84.343796  0.127751 -0.917625 -0.376356  0.748224 1.978098 1 0 1.000000
0  -5.685370 -8.910997 89.072281  -0.297521 -0.946370 -0.125956  0.688000 1.976000 1 0 1.000000
no_material
0  5.472537 1.797108 -1.266750  0.356788 0.646976 -0.673887  0.945629 1.845330 1 0 1.000000
0  6.844439 -1.751047 -0.567939  0.797830 -0.292247 -0.527314  0.957513 1.817084 1 0 1.000000
0  5.075503 -2.926529 -0.759647  0.114657 -0.794856 -0.595867  0.977346 1.816185 1 0 1.000000
no_material
0  2.817384 -7.240716 62.647751  0.367474 -0.923352 0.111286  0.811431 1.793121 1 0 1.000000
0  1.842131 -7.928237 47.881729  0.301168 -0.949199 -0.091204  0.775015 1.680452 1 0 1.000000
0  7.461837 -4.345679 53.834618  0.872015 -0.489428 0.007029  0.880430 1.722519 1 0 1.000000
no_material
0  5.917737 8.538724 102.072807  0.769994 0.428104 0.473113  0.577560 1.202262 1 0 1.000000
0  0.923496 3.143255 107.568710  0.212590 0.182160 0.960012  0.642028 1.269213 1 0 1.000000
0  6.528218 -1.362235 104.205200  0.790561 -0.188594 0.582620  0.579143 1.258506 1 0 1.000000
no_material
0  -4.793956 -3.115020 18.757936  0.190709 -0.981629 -0.005864  0.314101 1.126853 1 0 1.000000
0  -2.249294 -0.142647 18.864159  0.997397 0.007253 -0.071734  0.261898 1.111764 1 0 1.000000
0  -3.565654 -3.122909 32.012005  -0.433784 -0.881679 -0.185669  0.362367 1.016755 1 0 1.000000
no_material
0  -3.902552 4.845908 61.246010  -0.270811 0.962549 0.012681  0.511766 1.470267 1 0 1.000000
0  2.312382 5.992638 65.756317  0.132894 0.990742 -0.027733  0.439583 1.497931 1 0 1.000000
0  0.839276 6.036245 51.023170  0.172693 0.978216 0.115202  0.442241 1.401273 1 0 1.000000
no_material
0  -5.572253 0.328239 107.072250  -0.492028 -0.044439 0.869444  0.700366 1.282583 1 0 1.000000
0  1.738435 -2.317084 107.080750  0.226702 -0.314331 0.921847  0.641816 1.307867 1 0 1.000000
0  0.923496 3.143255 107.568710  0.212590 0.182160 0.960012  0.642028 1.269213 1 0 1.000000
no_material
0  5.472537 1.797108 -1.266750  0.356788 0.646976 -0.673887  0.752845 1.254782 1 0 1.000000
0  2.478390 2.149715 12.476557  -0.786435 0.616058 -0.044638  0.835731 1.279847 1 0 1.000000
0  6.535301 2.251960 10.173449  0.498440 0.856551 -0.133708  0.790200 1.241100 1 0 1.000000
no_material
0  3.402729 10.905264 86.995514  0.479836 0.793484 -0.374353  0.440848 1.643896 1 0 1.000000
0  4.691925 5.762985 81.727859  0.778207 0.517683 -0.355525  0.410790 1.625522 1 0 1.000000
0  1.329071 5.068150 75.800644  0.335789 0.927131 -0.166358  0.437370 1.574272 1 0 1.000000
no_material
0  9.322822 -0.483992 94.428146  0.996168 0.039277 0.078151  0.402253 1.818904 1 0 1.000000
0  8.220033 0.924281 85.379707  0.962148 0.058121 -0.266256  0.433952 1.736275 1 0 1.000000
0  6.367937 9.611304 94.225700  0.852890 0.518831 -0.058244  0.476299 1.855649 1 0 1.000000
no_material
0  1.534352 -4.730998 74.903999  0.287449 -0.952535 0.100254  0.773793 1.888741 1 0 1.000000
0  2.817384 -7.240716 62.647751  0.367474 -0.923352 0.111286  0.811431 1.793121 1 0 1.000000
0  4.063572 -2.951221 75.690971  0.809833 -0.585990 0.028029  0.851645 1.901013 1 0 1.000000
no_material
0  1.534352 -4.730998 74.903999  0.287449 -0.952535 0.100254  0.773793 1.888741 1 0 1.000000
0  -1.192216 -6.795460 69.525612  -0.181661 -0.955653 0.231791  0.711161 1.836077 1 0 1.000000
0  2.817384 -7.240716 62.647751  0.367474 -0.923352 0.111286  0.811431 1.793121 1 0 1.000000
no_material
0  5.699169 1.685997 74.269737  0.900805 0.308959 0.305113  0.376941 1.568990 1 0 1.000000
0  1.329071 5.068150 75.800644  0.335789 0.927131 -0.166358  0.437370 1.574272 1 0 1.000000
0  4.500654 2.152783 76.677742  0.845629 0.530279 -0.060964  0.378574 1.585095 1 0 1.000000
no_material
0  -5.222922 -1.202419 75.389908  -0.870373 -0.484790 0.086194  0.564132 1.561501 1 0 1.000000
0  -6.270018 1.132971 77.853165  -0.948809 0.084603 -0.304309  0.554248 1.582519 1 0 1.000000
0  -5.870556 0.395184 73.388718  -0.958646 0.183382 0.217644  0.565657 1.552650 1 0 1.000000
no_material
0  5.075503 -2.926529 -0.759647  0.114657 -0.794856 -0.595867  0.977346 1.816185 1 0 1.000000
0  1.790055 0.968193 -1.025939  -0.708741 0.381494 -0.593422  0.969330 1.864161 1 0 1.000000
0  5.472537 1.797108 -1.266750  0.356788 0.646976 -0.673887  0.945629 1.845330 1 0 1.000000
no_material
0  -1.027653 8.818697 25.984846  -0.049313 0.793146 -0.607032  0.977715 1.225195 1 0 1.000000
0  7.625583 6.608512 27.451872  0.637922 0.755180 -0.150859  0.926434 1.244325 1 0 1.000000
0  3.590599 5.779117 26.104830  -0.092764 0.565283 -0.819664  0.960338 1.267009 1 0 1.000000
no_material
0  5.075503 -2.926529 -0.759647  0.114657 -0.794856 -0.595867  0.743303 1.364739 1 0 1.000000
0  6.581108 -2.498996 19.581091  0.454592 -0.890700 0.000319  0.872070 1.419490 1 0 1.000000
0  2.892057 -1.650982 14.119768  -0.780435 -0.624592 0.028395  0.837057 1.347046 1 0 1.000000
no_material
0  8.783584 -4.695476 93.284042  0.897909 -0.439839 0.017318  0.355547 1.791144 1 0 1.000000
0  9.322822 -0.483992 94.428146  0.996168 0.039277 0.078151  0.402253 1.818904 1 0 1.000000
0  6.528218 -1.362235 104.205200  0.790561 -0.188594 0.582620  0.345256 1.917617 1 0 1.000000
no_material
0  5.894395 4.786850 67.262703  0.671957 0.739746 0.035359  0.374779 1.519816 1 0 1.000000
0  1.329071 5.068150 75.800644  0.335789 0.927131 -0.166358  0.437370 1.574272 1 0 1.000000
0  5.699169 1.685997 74.269737  0.900805 0.308959 0.305113  0.376941 1.568990 1 0 1.000000
no_material
0  5.894395 4.786850 67.262703  0.671957 0.739746 0.035359  0.374779 1.519816 1 0 1.000000
0  5.699169 1.685997 74.269737  0.900805 0.308959 0.305113  0.376941 1.568990 1 0 1.000000
0  7.139548 0.393474 70.489441  0.956175 0.161080 0.244504  0.488137 1.624915 1 0 1.000000
no_material
0  -2.772073 -8.453180 53.635780  -0.333522 -0.942601 0.016344  0.693064 1.714084 1 0 1.000000
0  2.817384 -7.240716 62.647751  0.367474 -0.923352 0.111286  0.811431 1.793121 1 0 1.000000
0  -1.192216 -6.795460 69.525612  -0.181661 -0.955653 0.231791  0.711161 1.836077 1 0 1.000000
no_material
0  4.798882 -8.334570 96.034264  0.412501 -0.895250 0.168434  0.304417 1.805116 1 0 1.000000
0  4.589947 -8.320367 92.142075  0.359928 -0.930704 0.065127  0.305917 1.764563 1 0 1.000000
0  8.783584 -4.695476 93.284042  0.897909 -0.439839 0.017318  0.355547 1.791144 1 0 1.000000
no_material
0  5.148075 -0.213610 77.566856  0.978005 -0.128568 -0.164247  0.890410 1.923837 1 0 1.000000
0  5.699169 1.685997 74.269737  0.900805 0.308959 0.305113  0.914828 1.910662 1 0 1.000000
0  4.500654 2.152783 76.677742  0.845629 0.530279 -0.060964  0.905600 1.925582 1 0 1.000000
no_material
0  -0.043356 10.301215 104.903877  0.093281 0.624354 0.775552  0.641842 1.208283 1 0 1.000000
0  -5.572253 0.328239 107.072250  -0.492028 -0.044439 0.869444  0.700366 1.282583 1 0 1.000000
0  0.923496 3.143255 107.568710  0.212590 0.182160 0.960012  0.642028 1.269213 1 0 1.000000
no_material
0  8.220033 0.924281 85.379707  0.962148 0.058121 -0.266256  0.500358 1.052310 1 0 1.000000
0  3.402729 10.905264 86.995514  0.479836 0.793484 -0.374353  0.589708 1.058007 1 0 1.000000
0  6.367937 9.611304 94.225700  0.852890 0.518831 -0.058244  0.557007 1.128564 1 0 1.000000
no_material
0  3.402729 10.905264 86.995514  0.479836 0.793484 -0.374353  0.589708 1.058007 1 0 1.000000
0  2.914449 13.406938 98.439812  0.436106 0.875745 0.207080  0.609998 1.153682 1 0 1.000000
0  6.367937 9.611304 94.225700  0.852890 0.518831 -0.058244  0.557007 1.128564 1 0 1.000000
no_material
0  2.478390 2.149715 12.476557  -0.786435 0.616058 -0.044638  0.835731 1.279847 1 0 1.000000
0  6.965631 3.419333 16.913353  0.504211 0.828391 -0.244009  0.873676 1.252496 1 0 1.000000
0  6.535301 2.251960 10.173449  0.498440 0.856551 -0.133708  0.790200 1.241100 1 0 1.000000
no_material
0  8.667201 0.436260 17.223978  0.994668 -0.075664 -0.070078  0.833290 1.433511 1 0 1.000000
0  6.965631 3.419333 16.913353  0.504211 0.828391 -0.244009  0.820552 1.464356 1 0 1.000000
0  9.158210 3.034936 26.503607  0.999727 0.022196 -0.007339  0.886226 1.463979 1 0 1.000000
no_material
0  -5.685370 -8.910997 89.072281  -0.297521 -0.946370 -0.125956  0.185400 1.722237 1 0 1.000000
0  0.671633 -8.059051 84.343796  0.127751 -0.917625 -0.376356  0.270592 1.669059 1 0 1.000000
0  1.329201 -8.782957 89.910271  0.017856 -0.999730 0.014858  0.264149 1.725428 1 0 1.000000
no_material
0  2.478390 2.149715 12.476557  -0.786435 0.616058 -0.044638  0.835731 1.279847 1 0 1.000000
0  2.892057 -1.650982 14.119768  -0.780435 -0.624592 0.028395  0.837057 1.347046 1 0 1.000000
0  3.590599 5.779117 26.104830  -0.092764 0.565283 -0.819664  0.960338 1.267009 1 0 1.000000
no_material
0  1.008493 -1.442659 25.943163  -0.602829 -0.585998 -0.541483  0.973711 1.352785 1 0 1.000000
0  3.590599 5.779117 26.104830  -0.092764 0.565283 -0.819664  0.960338 1.267009 1 0 1.000000
0  2.892057 -1.650982 14.119768  -0.780435 -0.624592 0.028395  0.837057 1.347046 1 0 1.000000
no_material
0  1.329071 5.068150 75.800644  0.335789 0.927131 -0.166358  0.437370 1.574272 1 0 1.000000
0  -3.012006 4.886116 74.289810  -0.472646 0.880124 -0.044590  0.501506 1.561743 1 0 1.000000
0  -2.996158 6.234198 78.236565  -0.419316 0.815995 -0.397903  0.485781 1.600664 1 0 1.000000
no_material
0  5.917737 8.538724 102.072807  0.769994 0.428104 0.473113  0.577560 1.202262 1 0 1.000000
0  -0.043356 10.301215 104.903877  0.093281 0.624354 0.775552  0.641842 1.208283 1 0 1.000000
0  0.923496 3.143255 107.568710  0.212590 0.182160 0.960012  0.642028 1.269213 1 0 1.000000
no_material
0  -5.222922 -1.202419 75.389908  -0.870373 -0.484790 0.086194  0.599545 1.894581 1 0 1.000000
0  -2.075505 -4.568207 74.776451  -0.442112 -0.896705 0.021393  0.682056 1.883654 1 0 1.000000
0  -3.062183 -5.380156 78.857697  -0.388235 -0.842883 -0.372588  0.690637 1.931594 1 0 1.000000
no_material
0  2.892057 -1.650982 14.119768  -0.780435 -0.624592 0.028395  0.837057 1.347046 1 0 1.000000
0  6.581108 -2.498996 19.581091  0.454592 -0.890700 0.000319  0.872070 1.419490 1 0 1.000000
0  2.316803 -3.129770 30.083931  0.134159 -0.976640 -0.167856  0.977530 1.413394 1 0 1.000000
no_material
0  -9.024105 7.475864 91.730515  -0.836473 0.530563 -0.137174  0.740701 1.097699 1 0 1.000000
0  -0.687890 14.175817 93.515022  -0.123000 0.976545 -0.176720  0.640654 1.109620 1 0 1.000000
0  -2.996158 6.234198 78.236565  -0.419316 0.815995 -0.397903  0.646772 1.015582 1 0 1.000000
no_material
0  -7.588580 2.770294 23.716852  -0.733766 0.654774 -0.181271  0.414567 1.132270 1 0 1.000000
0  -8.201132 1.556135 34.620773  -0.993055 -0.117561 -0.004585  0.429050 1.036939 1 0 1.000000
0  -5.628890 8.102172 32.117901  -0.646734 0.762421 -0.021182  0.482893 1.080282 1 0 1.000000
no_material
0  -3.510483 -8.385953 93.121689  0.032710 -0.996079 0.082196  0.208792 1.768930 1 0 1.000000
0  -7.304412 -8.189437 92.784966  -0.597097 -0.801911 0.020357  0.167228 1.774162 1 0 1.000000
0  -5.685370 -8.910997 89.072281  -0.297521 -0.946370 -0.125956  0.185400 1.722237 1 0 1.000000
no_material
0  6.535301 2.251960 10.173449  0.498440 0.856551 -0.133708  0.764638 1.444256 1 0 1.000000
0  6.965631 3.419333 16.913353  0.504211 0.828391 -0.244009  0.820552 1.464356 1 0 1.000000
0  8.667201 0.436260 17.223978  0.994668 -0.075664 -0.070078  0.833290 1.433511 1 0 1.000000
no_material
0  -8.080747 -6.563743 87.143265  -0.799547 -0.531634 -0.279445  0.131800 1.710142 1 0 1.000000
0  -7.304412 -8.189437 92.784966  -0.597097 -0.801911 0.020357  0.167228 1.774162 1 0 1.000000
0  -10.747785 -1.079572 99.538467  -0.963139 -0.101432 0.249147  0.092260 1.869803 1 0 1.000000
no_material
0  8.220033 0.924281 85.379707  0.962148 0.058121 -0.266256  0.433952 1.736275 1 0 1.000000
0  8.783584 -4.695476 93.284042  0.897909 -0.439839 0.017318  0.355547 1.791144 1 0 1.000000
0  4.531431 -4.170371 80.680946  0.681346 -0.655184 -0.326344  0.342003 1.674613 1 0 1.000000
no_material
0  -5.882542 -8.768015 95.878479  -0.242383 -0.966238 0.087377  0.182595 1.800210 1 0 1.000000
0  -7.304412 -8.189437 92.784966  -0.597097 -0.801911 0.020357  0.167228 1.774162 1 0 1.000000
0  -3.510483 -8.385953 93.121689  0.032710 -0.996079 0.082196  0.208792 1.768930 1 0 1.000000
no_material
0  5.148075 -0.213610 77.566856  0.978005 -0.128568 -0.164247  0.890410 1.923837 1 0 1.000000
0  4.500654 2.152783 76.677742  0.845629 0.530279 -0.060964  0.903588 1.939918 1 0 1.000000
0  8.220033 0.924281 85.379707  0.962148 0.058121 -0.266256  0.903976 1.980908 1 0 1.000000
no_material
0  -2.249294 -0.142647 18.864159  0.997397 0.007253 -0.071734  0.261898 1.111764 1 0 1.000000
0  -2.675256 0.930976 -0.858230  0.793182 0.174196 -0.583539  0.222486 1.231343 1 0 1.000000
0  -4.446906 2.771695 -1.049373  0.139625 0.777474 -0.613221  0.188165 1.228010 1 0 1.000000
no_material
0  7.461837 -4.345679 53.834618  0.872015 -0.489428 0.007029  0.880430 1.722519 1 0 1.000000
0  1.842131 -7.928237 47.881729  0.301168 -0.949199 -0.091204  0.775015 1.680452 1 0 1.000000
0  5.837306 -4.601400 41.594185  0.681145 -0.700451 -0.213095  0.848197 1.636914 1 0 1.000000
no_material
0  -6.496302 3.943445 66.933739  -0.672451 0.739439 0.032239  0.546064 1.501273 1 0 1.000000
0  -3.012006 4.886116 74.289810  -0.472646 0.880124 -0.044590  0.501506 1.561743 1 0 1.000000
0  2.312382 5.992638 65.756317  0.132894 0.990742 -0.027733  0.439583 1.497931 1 0 1.000000
no_material
0  6.528218 -1.362235 104.205200  0.790561 -0.188594 0.582620  0.345256 1.917617 1 0 1.000000
0  1.738435 -2.317084 107.080750  0.226702 -0.314331 0.921847  0.277071 1.954285 1 0 1.000000
0  1.329640 -7.250354 104.095337  0.212459 -0.794490 0.568899  0.260497 1.890853 1 0 1.000000
no_material
0  6.581108 -2.498996 19.581091  0.454592 -0.890700 0.000319  0.872070 1.419490 1 0 1.000000
0  6.844439 -1.751047 -0.567939  0.797830 -0.292247 -0.527314  0.736834 1.396560 1 0 1.000000
0  8.667201 0.436260 17.223978  0.994668 -0.075664 -0.070078  0.833290 1.433511 1 0 1.000000
no_material
0  -9.345569 2.898203 84.986115  -0.928240 0.204528 -0.310707  0.060043 1.728724 1 0 1.000000
0  -6.270018 1.132971 77.853165  -0.948809 0.084603 -0.304309  0.084100 1.678700 1 0 1.000000
0  -8.080747 -6.563743 87.143265  -0.799547 -0.531634 -0.279445  0.131800 1.710142 1 0 1.000000
no_material
0  6.961866 -3.579089 65.389938  0.811445 -0.572872 0.115649  0.924566 1.813885 1 0 1.000000
0  6.971408 -3.203320 68.276978  0.127826 -0.703969 0.698633  0.907600 1.842000 1 0 1.000000
0  6.761641 -2.608673 69.030563  -0.007043 -0.975834 0.218398  0.906000 1.851900 1 0 1.000000
no_material
0  -2.956002 13.191257 99.633560  -0.354529 0.901798 0.247123  0.665103 1.156969 1 0 1.000000
0  -0.043356 10.301215 104.903877  0.093281 0.624354 0.775552  0.641842 1.208283 1 0 1.000000
0  2.914449 13.406938 98.439812  0.436106 0.875745 0.207080  0.609998 1.153682 1 0 1.000000
no_material
0  5.699169 1.685997 74.269737  0.900805 0.308959 0.305113  0.914828 1.910662 1 0 1.000000
0  4.063572 -2.951221 75.690971  0.809833 -0.585990 0.028029  0.851645 1.901013 1 0 1.000000
0  7.139548 0.393474 70.489441  0.956175 0.161080 0.244504  0.672398 1.733538 1 0 1.000000
no_material
0  4.063572 -2.951221 75.690971  0.809833 -0.585990 0.028029  0.851645 1.901013 1 0 1.000000
0  6.932176 -2.691494 69.146523  0.551981 -0.707587 0.441177  0.908781 1.851539 1 0 1.000000
0  7.139548 0.393474 70.489441  0.956175 0.161080 0.244504  0.672398 1.733538 1 0 1.000000
no_material
0  0.839276 6.036245 51.023170  0.172693 0.978216 0.115202  0.442241 1.401273 1 0 1.000000
0  6.699852 5.729787 35.959503  0.847210 0.503936 0.168177  0.381044 1.337524 1 0 1.000000
0  4.342149 8.196568 36.371403  0.511881 0.843542 0.162527  0.395062 1.301890 1 0 1.000000
no_material
0  -2.772073 -8.453180 53.635780  -0.333522 -0.942601 0.016344  0.693064 1.714084 1 0 1.000000
0  -2.081160 -7.066873 39.855957  -0.228141 -0.937625 -0.262319  0.719170 1.609970 1 0 1.000000
0  1.842131 -7.928237 47.881729  0.301168 -0.949199 -0.091204  0.775015 1.680452 1 0 1.000000
no_material
0  -0.132297 -1.213195 25.864235  0.256660 -0.677051 -0.689730  0.276188 1.015903 1 0 1.000000
0  -4.638125 2.528944 19.393599  0.376388 0.915152 -0.144323  0.220983 1.098503 1 0 1.000000
0  -2.549874 4.629700 24.544506  0.282691 0.351221 -0.892597  0.221060 1.020621 1 0 1.000000
no_material
0  8.667201 0.436260 17.223978  0.994668 -0.075664 -0.070078  0.833290 1.433511 1 0 1.000000
0  9.158210 3.034936 26.503607  0.999727 0.022196 -0.007339  0.886226 1.463979 1 0 1.000000
0  6.581108 -2.498996 19.581091  0.454592 -0.890700 0.000319  0.872070 1.419490 1 0 1.000000
no_material
0  -3.565654 -3.122909 32.012005  -0.433784 -0.881679 -0.185669  0.699405 1.544705 1 0 1.000000
0  1.008493 -1.442659 25.943163  -0.602829 -0.585998 -0.541483  0.777609 1.510793 1 0 1.000000
0  -2.081160 -7.066873 39.855957  -0.228141 -0.937625 -0.262319  0.719170 1.609970 1 0 1.000000
no_material
0  -2.081160 -7.066873 39.855957  -0.228141 -0.937625 -0.262319  0.719170 1.609970 1 0 1.000000
0  -6.613125 -4.326754 46.942505  -0.823893 -0.561026 -0.080313  0.624352 1.656769 1 0 1.000000
0  -8.201132 1.556135 34.620773  -0.993055 -0.117561 -0.004585  0.598482 1.577204 1 0 1.000000
no_material
0  -8.201132 1.556135 34.620773  -0.993055 -0.117561 -0.004585  0.574927 1.296213 1 0 1.000000
0  -7.921056 -0.420780 49.693230  -0.999713 0.023849 -0.002282  0.585143 1.380357 1 0 1.000000
0  -6.266788 3.874697 50.215317  -0.703568 0.707592 0.065612  0.534177 1.385118 1 0 1.000000
no_material
0  -2.996158 6.234198 78.236565  -0.419316 0.815995 -0.397903  0.485781 1.600664 1 0 1.000000
0  -6.270018 1.132971 77.853165  -0.948809 0.084603 -0.304309  0.554248 1.582519 1 0 1.000000
0  -9.345569 2.898203 84.986115  -0.928240 0.204528 -0.310707  0.563798 1.630287 1 0 1.000000
no_material
0  -6.270018 1.132971 77.853165  -0.948809 0.084603 -0.304309  0.554248 1.582519 1 0 1.000000
0  -2.996158 6.234198 78.236565  -0.419316 0.815995 -0.397903  0.485781 1.600664 1 0 1.000000
0  -3.012006 4.886116 74.289810  -0.472646 0.880124 -0.044590  0.501506 1.561743 1 0 1.000000
no_material
0  -7.588580 2.770294 23.716852  -0.733766 0.654774 -0.181271  0.199568 1.042853 1 0 1.000000
0  -1.027653 8.818697 25.984846  -0.049313 0.793146 -0.607032  0.178787 1.009407 1 0 1.000000
0  -2.549874 4.629700 24.544506  0.282691 0.351221 -0.892597  0.221060 1.020621 1 0 1.000000
no_material
0  -3.012006 4.886116 74.289810  -0.472646 0.880124 -0.044590  0.501506 1.561743 1 0 1.000000
0  -6.496302 3.943445 66.933739  -0.672451 0.739439 0.032239  0.546064 1.501273 1 0 1.000000
0  -7.818534 1.700953 68.030373  -0.983099 0.126767 0.132089  0.476122 1.424528 1 0 1.000000
no_material
0  1.350390 -8.310664 94.031067  -0.047275 -0.994147 0.097139  0.267890 1.780215 1 0 1.000000
0  -1.393112 -7.691959 97.231194  0.086203 -0.994651 0.056901  0.229340 1.810477 1 0 1.000000
0  1.329201 -8.782957 89.910271  0.017856 -0.999730 0.014858  0.264149 1.725428 1 0 1.000000
no_material
0  7.565310 0.328003 53.851967  0.929472 0.368317 0.020619  0.928037 1.721435 1 0 1.000000
0  7.874911 -0.547606 62.922379  0.985652 -0.105810 -0.131507  0.975703 1.781670 1 0 1.000000
0  6.961866 -3.579089 65.389938  0.811445 -0.572872 0.115649  0.924566 1.813885 1 0 1.000000
no_material
0  -2.081160 -7.066873 39.855957  -0.228141 -0.937625 -0.262319  0.719170 1.609970 1 0 1.000000
0  2.316803 -3.129770 30.083931  0.134159 -0.976640 -0.167856  0.800348 1.552909 1 0 1.000000
0  5.231183 -2.062167 34.290600  0.621059 -0.779818 -0.078547  0.849526 1.571856 1 0 1.000000
no_material
0  2.817384 -7.240716 62.647751  0.367474 -0.923352 0.111286  0.811431 1.793121 1 0 1.000000
0  7.461837 -4.345679 53.834618  0.872015 -0.489428 0.007029  0.880430 1.722519 1 0 1.000000
0  6.961866 -3.579089 65.389938  0.811445 -0.572872 0.115649  0.924566 1.813885 1 0 1.000000
no_material
0  2.817384 -7.240716 62.647751  0.367474 -0.923352 0.111286  0.811431 1.793121 1 0 1.000000
0  -2.772073 -8.453180 53.635780  -0.333522 -0.942601 0.016344  0.693064 1.714084 1 0 1.000000
0  1.842131 -7.928237 47.881729  0.301168 -0.949199 -0.091204  0.775015 1.680452 1 0 1.000000
no_material
0  -0.687890 14.175817 93.515022  -0.123000 0.976545 -0.176720  0.640654 1.109620 1 0 1.000000
0  -9.024105 7.475864 91.730515  -0.836473 0.530563 -0.137174  0.740701 1.097699 1 0 1.000000
0  -7.640455 9.252055 99.776962  -0.800245 0.545177 0.249781  0.719877 1.167533 1 0 1.000000
no_material
0  -5.222922 -1.202419 75.389908  -0.870373 -0.484790 0.086194  0.599545 1.894581 1 0 1.000000
0  -1.192216 -6.795460 69.525612  -0.181661 -0.955653 0.231791  0.711161 1.836077 1 0 1.000000
0  -2.075505 -4.568207 74.776451  -0.442112 -0.896705 0.021393  0.682056 1.883654 1 0 1.000000
no_material
0  0.839276 6.036245 51.023170  0.172693 0.978216 0.115202  0.442241 1.401273 1 0 1.000000
0  -6.266788 3.874697 50.215317  -0.703568 0.707592 0.065612  0.534177 1.385118 1 0 1.000000
0  -3.902552 4.845908 61.246010  -0.270811 0.962549 0.012681  0.511766 1.470267 1 0 1.000000
no_material
0  -7.859138 -2.678654 63.605202  -0.928461 -0.346388 0.134075  0.576021 1.629724 1 0 1.000000
0  -7.921056 -0.420780 49.693230  -0.999713 0.023849 -0.002282  0.567201 1.693956 1 0 1.000000
0  -6.613125 -4.326754 46.942505  -0.823893 -0.561026 -0.080313  0.624352 1.656769 1 0 1.000000
no_material
0  4.063572 -2.951221 75.690971  0.809833 -0.585990 0.028029  0.851645 1.901013 1 0 1.000000
0  6.961866 -3.579089 65.389938  0.811445 -0.572872 0.115649  0.924566 1.813885 1 0 1.000000
0  6.761641 -2.608673 69.030563  -0.007043 -0.975834 0.218398  0.906000 1.851900 1 0 1.000000
no_material
0  6.761641 -2.608673 69.030563  -0.007043 -0.975834 0.218398  0.906000 1.851900 1 0 1.000000
0  6.932176 -2.691494 69.146523  0.551981 -0.707587 0.441177  0.908781 1.851539 1 0 1.000000
0  4.063572 -2.951221 75.690971  0.809833 -0.585990 0.028029  0.851645 1.901013 1 0 1.000000
no_material
0  -5.870556 0.395184 73.388718  -0.958646 0.183382 0.217644  0.565657 1.552650 1 0 1.000000
0  -6.270018 1.132971 77.853165  -0.948809 0.084603 -0.304309  0.554248 1.582519 1 0 1.000000
0  -3.012006 4.886116 74.289810  -0.472646 0.880124 -0.044590  0.501506 1.561743 1 0 1.000000
no_material
0  -5.222922 -1.202419 75.389908  -0.870373 -0.484790 0.086194  0.599545 1.894581 1 0 1.000000
0  -3.062183 -5.380156 78.857697  -0.388235 -0.842883 -0.372588  0.690637 1.931594 1 0 1.000000
0  -6.270018 1.132971 77.853165  -0.948809 0.084603 -0.304309  0.575684 1.918089 1 0 1.000000
no_material
0  -8.080747 -6.563743 87.143265  -0.799547 -0.531634 -0.279445  0.648917 1.974114 1 0 1.000000
0  -6.270018 1.132971 77.853165  -0.948809 0.084603 -0.304309  0.575684 1.918089 1 0 1.000000
0  -3.062183 -5.380156 78.857697  -0.388235 -0.842883 -0.372588  0.690637 1.931594 1 0 1.000000
no_material
0  -5.572253 0.328239 107.072250  -0.492028 -0.044439 0.869444  0.158327 1.956425 1 0 1.000000
0  -10.747785 -1.079572 99.538467  -0.963139 -0.101432 0.249147  0.092260 1.869803 1 0 1.000000
0  -6.768297 -6.432597 103.061783  -0.527805 -0.657864 0.537250  0.172927 1.885453 1 0 1.000000
no_material
0  -8.201132 1.556135 34.620773  -0.993055 -0.117561 -0.004585  0.574927 1.296213 1 0 1.000000
0  -6.613125 -4.326754 46.942505  -0.823893 -0.561026 -0.080313  0.611100 1.353600 1 0 1.000000
0  -7.921056 -0.420780 49.693230  -0.999713 0.023849 -0.002282  0.585143 1.380357 1 0 1.000000
no_material
0  -4.793956 -3.115020 18.757936  0.190709 -0.981629 -0.005864  0.314101 1.126853 1 0 1.000000
0  -3.565654 -3.122909 32.012005  -0.433784 -0.881679 -0.185669  0.362367 1.016755 1 0 1.000000
0  -7.829954 -1.553773 22.797089  -0.741215 -0.669354 0.050642  0.362479 1.113132 1 0 1.000000
no_material
0  4.531431 -4.170371 80.680946  0.681346 -0.655184 -0.326344  0.828316 1.948941 1 0 1.000000
0  4.063572 -2.951221 75.690971  0.809833 -0.585990 0.028029  0.851645 1.901013 1 0 1.000000
0  5.148075 -0.213610 77.566856  0.978005 -0.128568 -0.164247  0.890410 1.923837 1 0 1.000000
no_material
0  6.367937 9.611304 94.225700  0.852890 0.518831 -0.058244  0.557007 1.128564 1 0 1.000000
0  2.914449 13.406938 98.439812  0.436106 0.875745 0.207080  0.609998 1.153682 1 0 1.000000
0  5.917737 8.538724 102.072807  0.769994 0.428104 0.473113  0.577560 1.202262 1 0 1.000000
no_material
0  -7.829954 -1.553773 22.797089  -0.741215 -0.669354 0.050642  0.362479 1.113132 1 0 1.000000
0  -3.565654 -3.122909 32.012005  -0.433784 -0.881679 -0.185669  0.362367 1.016755 1 0 1.000000
0  -8.201132 1.556135 34.620773  -0.993055 -0.117561 -0.004585  0.429050 1.036939 1 0 1.000000
no_material
0  -8.550240 0.273002 21.245195  -0.999888 0.005601 -0.013880  0.379791 1.134822 1 0 1.000000
0  -7.829954 -1.553773 22.797089  -0.741215 -0.669354 0.050642  0.362479 1.113132 1 0 1.000000
0  -8.201132 1.556135 34.620773  -0.993055 -0.117561 -0.004585  0.429050 1.036939 1 0 1.000000
no_material
0  -7.921056 -0.420780 49.693230  -0.999713 0.023849 -0.002282  0.585143 1.380357 1 0 1.000000
0  -7.859138 -2.678654 63.605202  -0.928461 -0.346388 0.134075  0.576021 1.629724 1 0 1.000000
0  -6.496302 3.943445 66.933739  -0.672451 0.739439 0.032239  0.546064 1.501273 1 0 1.000000
no_material
0  6.844439 -1.751047 -0.567939  0.797830 -0.292247 -0.527314  0.736834 1.396560 1 0 1.000000
0  6.581108 -2.498996 19.581091  0.454592 -0.890700 0.000319  0.872070 1.419490 1 0 1.000000
0  5.075503 -2.926529 -0.759647  0.114657 -0.794856 -0.595867  0.743303 1.364739 1 0 1.000000
no_material
0  9.158210 3.034936 26.503607  0.999727 0.022196 -0.007339  0.886226 1.463979 1 0 1.000000
0  6.699852 5.729787 35.959503  0.847210 0.503936 0.168177  0.924565 1.547378 1 0 1.000000
0  7.667713 0.986074 38.119080  0.991503 -0.128760 -0.018541  0.971002 1.518692 1 0 1.000000
no_material
0  -1.027653 8.818697 25.984846  -0.049313 0.793146 -0.607032  0.977715 1.225195 1 0 1.000000
0  0.337913 9.721295 33.886814  0.020529 0.998460 0.051528  0.981636 1.179868 1 0 1.000000
0  7.625583 6.608512 27.451872  0.637922 0.755180 -0.150859  0.926434 1.244325 1 0 1.000000
no_material
0  -9.345569 2.898203 84.986115  -0.928240 0.204528 -0.310707  0.775788 1.032867 1 0 1.000000
0  -9.024105 7.475864 91.730515  -0.836473 0.530563 -0.137174  0.740701 1.097699 1 0 1.000000
0  -2.996158 6.234198 78.236565  -0.419316 0.815995 -0.397903  0.646772 1.015582 1 0 1.000000
no_material
0  -2.249294 -0.142647 18.864159  0.997397 0.007253 -0.071734  0.261898 1.111764 1 0 1.000000
0  -0.132297 -1.213195 25.864235  0.256660 -0.677051 -0.689730  0.276188 1.015903 1 0 1.000000
0  -3.565654 -3.122909 32.012005  -0.433784 -0.881679 -0.185669  0.362367 1.016755 1 0 1.000000
no_material
0  2.892057 -1.650982 14.119768  -0.780435 -0.624592 0.028395  0.837057 1.347046 1 0 1.000000
0  1.790055 0.968193 -1.025939  -0.708741 0.381494 -0.593422  0.761559 1.280033 1 0 1.000000
0  2.521172 -2.183605 -0.659011  -0.606280 -0.594934 -0.527710  0.753153 1.327198 1 0 1.000000
no_material
0  6.965631 3.419333 16.913353  0.504211 0.828391 -0.244009  0.820552 1.464356 1 0 1.000000
0  7.625583 6.608512 27.451872  0.637922 0.755180 -0.150859  0.870443 1.485349 1 0 1.000000
0  9.158210 3.034936 26.503607  0.999727 0.022196 -0.007339  0.886226 1.463979 1 0 1.000000
no_material
0  5.231183 -2.062167 34.290600  0.621059 -0.779818 -0.078547  0.849526 1.571856 1 0 1.000000
0  7.667713 0.986074 38.119080  0.991503 -0.128760 -0.018541  0.903666 1.602031 1 0 1.000000
0  5.837306 -4.601400 41.594185  0.681145 -0.700451 -0.213095  0.848197 1.636914 1 0 1.000000
no_material
0  -8.201132 1.556135 34.620773  -0.993055 -0.117561 -0.004585  0.574927 1.296213 1 0 1.000000
0  -6.266788 3.874697 50.215317  -0.703568 0.707592 0.065612  0.534177 1.385118 1 0 1.000000
0  -5.628890 8.102172 32.117901  -0.646734 0.762421 -0.021182  0.490700 1.271819 1 0 1.000000
no_material
0  -0.132297 -1.213195 25.864235  0.256660 -0.677051 -0.689730  0.764632 1.500490 1 0 1.000000
0  1.008493 -1.442659 25.943163  -0.602829 -0.585998 -0.541483  0.777609 1.510793 1 0 1.000000
0  -3.565654 -3.122909 32.012005  -0.433784 -0.881679 -0.185669  0.699405 1.544705 1 0 1.000000
no_material
0  -0.132297 -1.213195 25.864235  0.256660 -0.677051 -0.689730  0.422294 1.213829 1 0 1.000000
0  -2.549874 4.629700 24.544506  0.282691 0.351221 -0.892597  0.449000 1.231994 1 0 1.000000
0  3.590599 5.779117 26.104830  -0.092764 0.565283 -0.819664  0.419286 1.241162 1 0 1.000000
no_material
0  -2.772073 -8.453180 53.635780  -0.333522 -0.942601 0.016344  0.693064 1.714084 1 0 1.000000
0  -1.192216 -6.795460 69.525612  -0.181661 -0.955653 0.231791  0.711161 1.836077 1 0 1.000000
0  -7.859138 -2.678654 63.605202  -0.928461 -0.346388 0.134075  0.576021 1.629724 1 0 1.000000
no_material
0  1.008493 -1.442659 25.943163  -0.602829 -0.585998 -0.541483  0.777609 1.510793 1 0 1.000000
0  2.316803 -3.129770 30.083931  0.134159 -0.976640 -0.167856  0.800348 1.552909 1 0 1.000000
0  -2.081160 -7.066873 39.855957  -0.228141 -0.937625 -0.262319  0.719170 1.609970 1 0 1.000000
no_material
0  0.839276 6.036245 51.023170  0.172693 0.978216 0.115202  0.442241 1.401273 1 0 1.000000
0  2.312382 5.992638 65.756317  0.132894 0.990742 -0.027733  0.439583 1.497931 1 0 1.000000
0  7.565310 0.328003 53.851967  0.929472 0.368317 0.020619  0.336549 1.418844 1 0 1.000000
no_material
0  -5.222922 -1.202419 75.389908  -0.870373 -0.484790 0.086194  0.599545 1.894581 1 0 1.000000
0  -5.870556 0.395184 73.388718  -0.958646 0.183382 0.217644  0.563452 1.876050 1 0 1.000000
0  -7.331109 -3.027730 69.106682  -0.819308 -0.553765 0.148586  0.553440 1.823987 1 0 1.000000
no_material
0  1.350390 -8.310664 94.031067  -0.047275 -0.994147 0.097139  0.267890 1.780215 1 0 1.000000
0  4.798882 -8.334570 96.034264  0.412501 -0.895250 0.168434  0.304417 1.805116 1 0 1.000000
0  -1.393112 -7.691959 97.231194  0.086203 -0.994651 0.056901  0.229340 1.810477 1 0 1.000000
no_material
0  1.790055 0.968193 -1.025939  -0.708741 0.381494 -0.593422  0.761559 1.280033 1 0 1.000000
0  2.478390 2.149715 12.476557  -0.786435 0.616058 -0.044638  0.835731 1.279847 1 0 1.000000
0  5.472537 1.797108 -1.266750  0.356788 0.646976 -0.673887  0.752845 1.254782 1 0 1.000000
no_material
0  -0.687890 14.175817 93.515022  -0.123000 0.976545 -0.176720  0.640654 1.109620 1 0 1.000000
0  -2.956002 13.191257 99.633560  -0.354529 0.901798 0.247123  0.665103 1.156969 1 0 1.000000
0  2.914449 13.406938 98.439812  0.436106 0.875745 0.207080  0.609998 1.153682 1 0 1.000000
no_material
0  6.699852 5.729787 35.959503  0.847210 0.503936 0.168177  0.381044 1.337524 1 0 1.000000
0  7.565310 0.328003 53.851967  0.929472 0.368317 0.020619  0.336549 1.418844 1 0 1.000000
0  7.667713 0.986074 38.119080  0.991503 -0.128760 -0.018541  0.348804 1.320747 1 0 1.000000
no_material
0  5.894395 4.786850 67.262703  0.671957 0.739746 0.035359  0.374779 1.519816 1 0 1.000000
0  7.565310 0.328003 53.851967  0.929472 0.368317 0.020619  0.336549 1.418844 1 0 1.000000
0  2.312382 5.992638 65.756317  0.132894 0.990742 -0.027733  0.439583 1.497931 1 0 1.000000
no_material
0  -5.572253 0.328239 107.072250  -0.492028 -0.044439 0.869444  0.158327 1.956425 1 0 1.000000
0  1.329640 -7.250354 104.095337  0.212459 -0.794490 0.568899  0.260497 1.890853 1 0 1.000000
0  1.738435 -2.317084 107.080750  0.226702 -0.314331 0.921847  0.277071 1.954285 1 0 1.000000
no_material
0  1.329201 -8.782957 89.910271  0.017856 -0.999730 0.014858  0.264149 1.725428 1 0 1.000000
0  0.671633 -8.059051 84.343796  0.127751 -0.917625 -0.376356  0.270592 1.669059 1 0 1.000000
0  4.632118 -8.723330 88.961868  0.450177 -0.880678 -0.147470  0.309686 1.724961 1 0 1.000000
no_material
0  -5.628890 8.102172 32.117901  -0.646734 0.762421 -0.021182  0.490700 1.271819 1 0 1.000000
0  0.337913 9.721295 33.886814  0.020529 0.998460 0.051528  0.435502 1.290640 1 0 1.000000
0  -1.027653 8.818697 25.984846  -0.049313 0.793146 -0.607032  0.453981 1.251745 1 0 1.000000
no_material
0  -7.588580 2.770294 23.716852  -0.733766 0.654774 -0.181271  0.199568 1.042853 1 0 1.000000
0  -5.628890 8.102172 32.117901  -0.646734 0.762421 -0.021182  0.165100 1.021800 1 0 1.000000
0  -1.027653 8.818697 25.984846  -0.049313 0.793146 -0.607032  0.178787 1.009407 1 0 1.000000
no_material
0  -2.956002 13.191257 99.633560  -0.354529 0.901798 0.247123  0.665103 1.156969 1 0 1.000000
0  -4.686701 9.194277 104.046288  -0.516700 0.510505 0.687318  0.689277 1.202082 1 0 1.000000
0  -0.043356 10.301215 104.903877  0.093281 0.624354 0.775552  0.641842 1.208283 1 0 1.000000
no_material
0  5.837306 -4.601400 41.594185  0.681145 -0.700451 -0.213095  0.848197 1.636914 1 0 1.000000
0  7.667713 0.986074 38.119080  0.991503 -0.128760 -0.018541  0.903666 1.602031 1 0 1.000000
0  7.461837 -4.345679 53.834618  0.872015 -0.489428 0.007029  0.880430 1.722519 1 0 1.000000
no_material
0  1.329201 -8.782957 89.910271  0.017856 -0.999730 0.014858  0.264149 1.725428 1 0 1.000000
0  -3.510483 -8.385953 93.121689  0.032710 -0.996079 0.082196  0.208792 1.768930 1 0 1.000000
0  -5.685370 -8.910997 89.072281  -0.297521 -0.946370 -0.125956  0.185400 1.722237 1 0 1.000000
no_material
0  7.625583 6.608512 27.451872  0.637922 0.755180 -0.150859  0.926434 1.244325 1 0 1.000000
0  2.478390 2.149715 12.476557  -0.786435 0.616058 -0.044638  0.835731 1.279847 1 0 1.000000
0  3.590599 5.779117 26.104830  -0.092764 0.565283 -0.819664  0.960338 1.267009 1 0 1.000000
no_material
0  2.892057 -1.650982 14.119768  -0.780435 -0.624592 0.028395  0.837057 1.347046 1 0 1.000000
0  2.316803 -3.129770 30.083931  0.134159 -0.976640 -0.167856  0.977530 1.413394 1 0 1.000000
0  1.008493 -1.442659 25.943163  -0.602829 -0.585998 -0.541483  0.973711 1.352785 1 0 1.000000
no_material
0  -2.675256 0.930976 -0.858230  0.793182 0.174196 -0.583539  0.222486 1.231343 1 0 1.000000
0  -2.249294 -0.142647 18.864159  0.997397 0.007253 -0.071734  0.261898 1.111764 1 0 1.000000
0  -3.686035 -2.050801 -0.785415  0.518397 -0.628152 -0.580249  0.258055 1.235189 1 0 1.000000
no_material
0  1.329071 5.068150 75.800644  0.335789 0.927131 -0.166358  0.437370 1.574272 1 0 1.000000
0  2.312382 5.992638 65.756317  0.132894 0.990742 -0.027733  0.439583 1.497931 1 0 1.000000
0  -3.012006 4.886116 74.289810  -0.472646 0.880124 -0.044590  0.501506 1.561743 1 0 1.000000
no_material
0  2.316803 -3.129770 30.083931  0.134159 -0.976640 -0.167856  0.977530 1.413394 1 0 1.000000
0  6.581108 -2.498996 19.581091  0.454592 -0.890700 0.000319  0.872070 1.419490 1 0 1.000000
0  5.231183 -2.062167 34.290600  0.621059 -0.779818 -0.078547  0.980220 1.463910 1 0 1.000000
no_material
0  5.894395 4.786850 67.262703  0.671957 0.739746 0.035359  0.374779 1.519816 1 0 1.000000
0  7.874911 -0.547606 62.922379  0.985652 -0.105810 -0.131507  0.321691 1.490721 1 0 1.000000
0  7.565310 0.328003 53.851967  0.929472 0.368317 0.020619  0.336549 1.418844 1 0 1.000000
no_material
0  8.783584 -4.695476 93.284042  0.897909 -0.439839 0.017318  0.355547 1.791144 1 0 1.000000
0  8.220033 0.924281 85.379707  0.962148 0.058121 -0.266256  0.433952 1.736275 1 0 1.000000
0  9.322822 -0.483992 94.428146  0.996168 0.039277 0.078151  0.402253 1.818904 1 0 1.000000
no_material
0  -4.793956 -3.115020 18.757936  0.190709 -0.981629 -0.005864  0.314101 1.126853 1 0 1.000000
0  -7.090976 -2.398893 -1.063217  -0.534075 -0.572610 -0.621998  0.304265 1.256430 1 0 1.000000
0  -3.686035 -2.050801 -0.785415  0.518397 -0.628152 -0.580249  0.258055 1.235189 1 0 1.000000
no_material
0  4.589947 -8.320367 92.142075  0.359928 -0.930704 0.065127  0.305917 1.764563 1 0 1.000000
0  4.798882 -8.334570 96.034264  0.412501 -0.895250 0.168434  0.304417 1.805116 1 0 1.000000
0  1.350390 -8.310664 94.031067  -0.047275 -0.994147 0.097139  0.267890 1.780215 1 0 1.000000
no_material
0  3.402729 10.905264 86.995514  0.479836 0.793484 -0.374353  0.589708 1.058007 1 0 1.000000
0  -0.687890 14.175817 93.515022  -0.123000 0.976545 -0.176720  0.640654 1.109620 1 0 1.000000
0  2.914449 13.406938 98.439812  0.436106 0.875745 0.207080  0.609998 1.153682 1 0 1.000000
no_material
0  -6.266788 3.874697 50.215317  -0.703568 0.707592 0.065612  0.534177 1.385118 1 0 1.000000
0  0.839276 6.036245 51.023170  0.172693 0.978216 0.115202  0.442241 1.401273 1 0 1.000000
0  0.337913 9.721295 33.886814  0.020529 0.998460 0.051528  0.435502 1.290640 1 0 1.000000
no_material
0  -7.090976 -2.398893 -1.063217  -0.534075 -0.572610 -0.621998  0.983839 1.974039 1 0 1.000000
0  -4.446906 2.771695 -1.049373  0.139625 0.777474 -0.613221  0.926058 1.956787 1 0 1.000000
0  -2.675256 0.930976 -0.858230  0.793182 0.174196 -0.583539  0.940953 1.926870 1 0 1.000000
no_material
0  -7.090976 -2.398893 -1.063217  -0.534075 -0.572610 -0.621998  0.983839 1.974039 1 0 1.000000
0  -6.804206 1.647597 -0.653671  -0.690702 0.494837 -0.527321  0.956532 1.981077 1 0 1.000000
0  -4.446906 2.771695 -1.049373  0.139625 0.777474 -0.613221  0.926058 1.956787 1 0 1.000000
no_material
0  -2.956002 13.191257 99.633560  -0.354529 0.901798 0.247123  0.665103 1.156969 1 0 1.000000
0  -0.687890 14.175817 93.515022  -0.123000 0.976545 -0.176720  0.640654 1.109620 1 0 1.000000
0  -7.640455 9.252055 99.776962  -0.800245 0.545177 0.249781  0.719877 1.167533 1 0 1.000000
no_material
0  6.699852 5.729787 35.959503  0.847210 0.503936 0.168177  0.381044 1.337524 1 0 1.000000
0  0.839276 6.036245 51.023170  0.172693 0.978216 0.115202  0.442241 1.401273 1 0 1.000000
0  7.565310 0.328003 53.851967  0.929472 0.368317 0.020619  0.336549 1.418844 1 0 1.000000
no_material
0  -0.132297 -1.213195 25.864235  0.256660 -0.677051 -0.689730  0.422294 1.213829 1 0 1.000000
0  3.590599 5.779117 26.104830  -0.092764 0.565283 -0.819664  0.419286 1.241162 1 0 1.000000
0  1.008493 -1.442659 25.943163  -0.602829 -0.585998 -0.541483  0.411780 1.214933 1 0 1.000000
no_material
0  -1.393112 -7.691959 97.231194  0.086203 -0.994651 0.056901  0.229340 1.810477 1 0 1.000000
0  -5.882542 -8.768015 95.878479  -0.242383 -0.966238 0.087377  0.182595 1.800210 1 0 1.000000
0  -3.510483 -8.385953 93.121689  0.032710 -0.996079 0.082196  0.208792 1.768930 1 0 1.000000
no_material
0  -4.793956 -3.115020 18.757936  0.190709 -0.981629 -0.005864  0.314101 1.126853 1 0 1.000000
0  -7.829954 -1.553773 22.797089  -0.741215 -0.669354 0.050642  0.362479 1.113132 1 0 1.000000
0  -7.090976 -2.398893 -1.063217  -0.534075 -0.572610 -0.621998  0.304265 1.256430 1 0 1.000000
no_material
0  7.461837 -4.345679 53.834618  0.872015 -0.489428 0.007029  0.880430 1.722519 1 0 1.000000
0  7.565310 0.328003 53.851967  0.929472 0.368317 0.020619  0.928037 1.721435 1 0 1.000000
0  6.961866 -3.579089 65.389938  0.811445 -0.572872 0.115649  0.924566 1.813885 1 0 1.000000
no_material
0  5.837306 -4.601400 41.594185  0.681145 -0.700451 -0.213095  0.848197 1.636914 1 0 1.000000
0  -2.081160 -7.066873 39.855957  -0.228141 -0.937625 -0.262319  0.719170 1.609970 1 0 1.000000
0  5.231183 -2.062167 34.290600  0.621059 -0.779818 -0.078547  0.849526 1.571856 1 0 1.000000
no_material
0  -6.496302 3.943445 66.933739  -0.672451 0.739439 0.032239  0.546064 1.501273 1 0 1.000000
0  -7.859138 -2.678654 63.605202  -0.928461 -0.346388 0.134075  0.576021 1.629724 1 0 1.000000
0  -7.818534 1.700953 68.030373  -0.983099 0.126767 0.132089  0.587635 1.509127 1 0 1.000000
no_material
0  -2.081160 -7.066873 39.855957  -0.228141 -0.937625 -0.262319  0.719170 1.609970 1 0 1.000000
0  5.837306 -4.601400 41.594185  0.681145 -0.700451 -0.213095  0.848197 1.636914 1 0 1.000000
0  1.842131 -7.928237 47.881729  0.301168 -0.949199 -0.091204  0.775015 1.680452 1 0 1.000000
no_material
0  -7.588580 2.770294 23.716852  -0.733766 0.654774 -0.181271  0.199568 1.042853 1 0 1.000000
0  -2.549874 4.629700 24.544506  0.282691 0.351221 -0.892597  0.221060 1.020621 1 0 1.000000
0  -4.638125 2.528944 19.393599  0.376388 0.915152 -0.144323  0.220983 1.098503 1 0 1.000000
no_material
0  7.667713 0.986074 38.119080  0.991503 -0.128760 -0.018541  0.971002 1.518692 1 0 1.000000
0  5.231183 -2.062167 34.290600  0.621059 -0.779818 -0.078547  0.980220 1.463910 1 0 1.000000
0  6.581108 -2.498996 19.581091  0.454592 -0.890700 0.000319  0.872070 1.419490 1 0 1.000000
no_material
0  -5.870556 0.395184 73.388718  -0.958646 0.183382 0.217644  0.565657 1.552650 1 0 1.000000
0  -3.012006 4.886116 74.289810  -0.472646 0.880124 -0.044590  0.501506 1.561743 1 0 1.000000
0  -7.818534 1.700953 68.030373  -0.983099 0.126767 0.132089  0.476122 1.424528 1 0 1.000000
no_material
0  -8.034076 0.400317 10.276506  -0.985329 0.161983 -0.053739  0.348433 1.225038 1 0 1.000000
0  -7.588580 2.770294 23.716852  -0.733766 0.654774 -0.181271  0.414567 1.132270 1 0 1.000000
0  -6.804206 1.647597 -0.653671  -0.690702 0.494837 -0.527321  0.342917 1.267451 1 0 1.000000
no_material
0  -8.550240 0.273002 21.245195  -0.999888 0.005601 -0.013880  0.379791 1.134822 1 0 1.000000
0  -8.034076 0.400317 10.276506  -0.985329 0.161983 -0.053739  0.348433 1.225038 1 0 1.000000
0  -7.090976 -2.398893 -1.063217  -0.534075 -0.572610 -0.621998  0.304265 1.256430 1 0 1.000000
no_material
0  6.971408 -3.203320 68.276978  -0.597436 -0.585970 0.547458  0.907600 1.842000 1 0 1.000000
0  6.932176 -2.691494 69.146523  0.551981 -0.707587 0.441177  0.908781 1.851539 1 0 1.000000
0  6.761641 -2.608673 69.030563  -0.007043 -0.975834 0.218398  0.906000 1.851900 1 0 1.000000
no_material
0  4.632118 -8.723330 88.961868  0.450177 -0.880678 -0.147470  0.309686 1.724961 1 0 1.000000
0  4.589947 -8.320367 92.142075  0.359928 -0.930704 0.065127  0.305917 1.764563 1 0 1.000000
0  1.329201 -8.782957 89.910271  0.017856 -0.999730 0.014858  0.264149 1.725428 1 0 1.000000
no_material
0  5.917737 8.538724 102.072807  0.769994 0.428104 0.473113  0.436854 1.909222 1 0 1.000000
0  6.528218 -1.362235 104.205200  0.790561 -0.188594 0.582620  0.345256 1.917617 1 0 1.000000
0  9.322822 -0.483992 94.428146  0.996168 0.039277 0.078151  0.402253 1.818904 1 0 1.000000
no_material
0  7.461837 -4.345679 53.834618  0.872015 -0.489428 0.007029  0.880430 1.722519 1 0 1.000000
0  7.667713 0.986074 38.119080  0.991503 -0.128760 -0.018541  0.903666 1.602031 1 0 1.000000
0  7.565310 0.328003 53.851967  0.929472 0.368317 0.020619  0.928037 1.721435 1 0 1.000000
no_material
0  -2.996158 6.234198 78.236565  -0.419316 0.815995 -0.397903  0.646772 1.015582 1 0 1.000000
0  -0.687890 14.175817 93.515022  -0.123000 0.976545 -0.176720  0.640654 1.109620 1 0 1.000000
0  3.402729 10.905264 86.995514  0.479836 0.793484 -0.374353  0.589708 1.058007 1 0 1.000000
no_material
0  3.402729 10.905264 86.995514  0.479836 0.793484 -0.374353  0.589708 1.058007 1 0 1.000000
0  8.220033 0.924281 85.379707  0.962148 0.058121 -0.266256  0.500358 1.052310 1 0 1.000000
0  4.691925 5.762985 81.727859  0.778207 0.517683 -0.355525  0.544932 1.030467 1 0 1.000000
no_material
0  -2.956002 13.191257 99.633560  -0.354529 0.901798 0.247123  0.665103 1.156969 1 0 1.000000
0  -7.640455 9.252055 99.776962  -0.800245 0.545177 0.249781  0.719877 1.167533 1 0 1.000000
0  -4.686701 9.194277 104.046288  -0.516700 0.510505 0.687318  0.689277 1.202082 1 0 1.000000
no_material
0  -6.266788 3.874697 50.215317  -0.703568 0.707592 0.065612  0.534177 1.385118 1 0 1.000000
0  -6.496302 3.943445 66.933739  -0.672451 0.739439 0.032239  0.546064 1.501273 1 0 1.000000
0  -3.902552 4.845908 61.246010  -0.270811 0.962549 0.012681  0.511766 1.470267 1 0 1.000000
no_material
0  -2.249294 -0.142647 18.864159  0.997397 0.007253 -0.071734  0.261898 1.111764 1 0 1.000000
0  -4.793956 -3.115020 18.757936  0.190709 -0.981629 -0.005864  0.314101 1.126853 1 0 1.000000
0  -3.686035 -2.050801 -0.785415  0.518397 -0.628152 -0.580249  0.258055 1.235189 1 0 1.000000
no_material
0  -7.829954 -1.553773 22.797089  -0.741215 -0.669354 0.050642  0.362479 1.113132 1 0 1.000000
0  -8.550240 0.273002 21.245195  -0.999888 0.005601 -0.013880  0.379791 1.134822 1 0 1.000000
0  -7.090976 -2.398893 -1.063217  -0.534075 -0.572610 -0.621998  0.304265 1.256430 1 0 1.000000
no_material
0  -3.565654 -3.122909 32.012005  -0.433784 -0.881679 -0.185669  0.699405 1.544705 1 0 1.000000
0  -2.081160 -7.066873 39.855957  -0.228141 -0.937625 -0.262319  0.719170 1.609970 1 0 1.000000
0  -8.201132 1.556135 34.620773  -0.993055 -0.117561 -0.004585  0.598482 1.577204 1 0 1.000000
no_material
0  2.478390 2.149715 12.476557  -0.786435 0.616058 -0.044638  0.835731 1.279847 1 0 1.000000
0  1.790055 0.968193 -1.025939  -0.708741 0.381494 -0.593422  0.761559 1.280033 1 0 1.000000
0  2.892057 -1.650982 14.119768  -0.780435 -0.624592 0.028395  0.837057 1.347046 1 0 1.000000
no_material
0  6.844439 -1.751047 -0.567939  0.797830 -0.292247 -0.527314  0.736834 1.396560 1 0 1.000000
0  5.472537 1.797108 -1.266750  0.356788 0.646976 -0.673887  0.714870 1.440193 1 0 1.000000
0  6.535301 2.251960 10.173449  0.498440 0.856551 -0.133708  0.764638 1.444256 1 0 1.000000
no_material
0  1.738435 -2.317084 107.080750  0.226702 -0.314331 0.921847  0.277071 1.954285 1 0 1.000000
0  6.528218 -1.362235 104.205200  0.790561 -0.188594 0.582620  0.345256 1.917617 1 0 1.000000
0  0.923496 3.143255 107.568710  0.212590 0.182160 0.960012  0.313000 1.972700 1 0 1.000000
no_material
0  5.894395 4.786850 67.262703  0.671957 0.739746 0.035359  0.374779 1.519816 1 0 1.000000
0  7.139548 0.393474 70.489441  0.956175 0.161080 0.244504  0.488137 1.624915 1 0 1.000000
0  7.874911 -0.547606 62.922379  0.985652 -0.105810 -0.131507  0.321691 1.490721 1 0 1.000000
no_material
0  7.139548 0.393474 70.489441  0.956175 0.161080 0.244504  0.488137 1.624915 1 0 1.000000
0  6.932176 -2.691494 69.146523  0.551981 -0.707587 0.441177  0.908781 1.851539 1 0 1.000000
0  7.874911 -0.547606 62.922379  0.985652 -0.105810 -0.131507  0.321691 1.490721 1 0 1.000000
no_material
0  7.874911 -0.547606 62.922379  0.985652 -0.105810 -0.131507  0.000000 0.000000 1 0 1.000000
0  6.971408 -3.203320 68.276978  0.127826 -0.703969 0.698633  0.907600 1.842000 1 0 1.000000
0  6.961866 -3.579089 65.389938  0.811445 -0.572872 0.115649  0.924566 1.813885 1 0 1.000000
no_material
0  -7.818534 1.700953 68.030373  -0.983099 0.126767 0.132089  0.587635 1.509127 1 0 1.000000
0  -7.859138 -2.678654 63.605202  -0.928461 -0.346388 0.134075  0.576021 1.629724 1 0 1.000000
0  -7.331109 -3.027730 69.106682  -0.819308 -0.553765 0.148586  0.233756 1.313374 1 0 1.000000
no_material
0  6.971408 -3.203320 68.276978  0.127826 -0.703969 0.698633  0.907600 1.842000 1 0 1.000000
0  7.874911 -0.547606 62.922379  0.985652 -0.105810 -0.131507  0.000000 0.000000 1 0 1.000000
0  6.761641 -2.608673 69.030563  0.975057 0.083180 0.205780  0.906000 1.851900 1 0 1.000000
end
